nColumns=19
nRows=39
DataType=double
version=3
OpenSimVersion=4.1
endheader
time	ground_force_1_vx	ground_force_1_vy	ground_force_1_vz	ground_force_1_px	ground_force_1_py	ground_force_1_pz	ground_force_1_mx	ground_force_1_my	ground_force_1_mz	ground_force_2_vx	ground_force_2_vy	ground_force_2_vz	ground_force_2_px	ground_force_2_py	ground_force_2_pz	ground_force_2_mx	ground_force_2_my	ground_force_2_mz
4.05	0	0	0	0.000313614	0	-0.00054148	0	0	0	-125.463	1630.44	72.1176	0.797181	0	-0.440333	0	-4.49642	0
4.05833	0	0	0	0.00031362	0	-0.000541476	0	0	0	-55.9967	1620.94	57.2881	0.760417	0	-0.443571	0	-3.79912	0
4.06667	0	0	0	0.000313625	0	-0.000541472	0	0	0	7.38922	1580.62	43.8059	0.725642	0	-0.444347	0	-2.73938	0
4.075	0	0	0	0.00031363	0	-0.000541469	0	0	0	62.7503	1508.38	36.2957	0.692971	0	-0.442495	0	-1.49665	0
4.08333	0	0	0	0.000313635	0	-0.000541466	0	0	0	116.484	1397.17	27.7636	0.659209	0	-0.440708	0	-0.227963	0
4.09167	0	0	0	0.000313639	0	-0.000541464	0	0	0	167.074	1245.33	13.5197	0.622191	0	-0.440743	-0	0.944353	-0
4.1	0	0	0	0.000313643	0	-0.000541461	0	0	0	202.247	1061.3	-2.20313	0.585146	0	-0.441285	-0	1.91485	-0
4.10833	0	0	0	0.000313646	0	-0.000541459	0	0	0	212.611	858.35	-13.5422	0.553437	0	-0.440026	-0	2.59991	-0
4.11667	0	0	0	0.000313649	0	-0.000541457	0	0	0	204	651.27	-20.4065	0.527706	0	-0.436508	-0	2.95422	-0
4.125	0	0	0	0.000313652	0	-0.000541455	0	0	0	183.637	455.266	-25.9141	0.504268	0	-0.432524	-0	2.96582	-0
4.13333	0	0	0	0.000313654	0	-0.000541454	0	0	0	149.107	285.465	-30.1002	0.478721	0	-0.430893	-0	2.63723	-0
4.14167	0	0	0	0.000313656	0	-0.000541453	0	0	0	101.462	156.85	-29.7756	0.445991	0	-0.432185	-0	1.98598	-0
4.15	0	0	0	0.000313657	0	-0.000541452	0	0	0	55.3346	76.1667	-23.646	0.399833	0	-0.42534	-0	1.06945	-0
4.15833	0	0	0	0.000313658	0	-0.000541451	0	0	0	26.3852	36.7206	-14.7341	0.364785	0	-0.370435	-0	0.002062	-0
4.16667	0	0	0	0.000313659	0	-0.000541451	0	0	0	12.824	20.578	-7.26584	0.413619	0	-0.259519	0	-1.06097	0
4.175	0	0	0	0.000313659	0	-0.000541451	0	0	0	5.03819	11.9594	-2.97097	0.537753	0	-0.146537	0	-1.96292	0
4.18333	0	0	0	0.00031366	0	-0.00054145	0	0	0	0	0	0	0.000314103	0	-0.000541276	0	0	0
4.19167	0	0	0	0.000313661	0	-0.00054145	0	0	0	0	0	0	0.000314105	0	-0.000541275	0	0	0
4.2	0	0	0	0.000313664	0	-0.000541449	0	0	0	0	0	0	0.000314107	0	-0.000541274	0	0	0
4.20833	0	0	0	0.000313667	0	-0.000541447	0	0	0	0	0	0	0.00031411	0	-0.000541273	0	0	0
4.21667	0	0	0	0.000313671	0	-0.000541445	0	0	0	0	0	0	0.000314114	0	-0.000541271	0	0	0
4.225	0	0	0	0.000313676	0	-0.000541442	0	0	0	0	0	0	0.000314119	0	-0.000541268	0	0	0
4.23333	-1.76516	11.5968	0.0243713	0.505242	0	-0.12381	-0	0.617298	-0	0	0	0	0.000314125	0	-0.000541265	0	0	0
4.24167	-7.23174	25.2499	-2.66099	0.769703	0	-0.239533	-0	1.24068	-0	0	0	0	0.000314132	0	-0.000541262	0	0	0
4.25	-26.4442	63.3083	-7.09369	0.888426	0	-0.320061	-0	1.32163	-0	0	0	0	0.00031414	0	-0.000541258	0	0	0
4.25833	-62.648	159.626	-11.4336	0.935784	0	-0.355604	-0	0.727116	-0	0	0	0	0.000314149	0	-0.000541254	0	0	0
4.26667	-106.335	358.561	-11.3447	0.957764	0	-0.364464	0	-0.497535	0	0	0	0	0.000314158	0	-0.000541249	0	0	0
4.275	-139.656	659.989	-2.83811	0.964369	0	-0.36364	0	-2.08496	0	0	0	0	0.000314169	0	-0.000541244	0	0	0
4.28333	-155.907	967.59	11.9269	0.959681	0	-0.360356	0	-3.58777	0	0	0	0	0.00031418	0	-0.000541238	0	0	0
4.29167	-172.17	1171.22	22.2347	0.948129	0	-0.357425	0	-4.52874	0	0	0	0	0.000314193	0	-0.000541232	0	0	0
4.3	-202.527	1274.78	17.579	0.931556	0	-0.356228	0	-4.60664	0	0	0	0	0.000314206	0	-0.000541225	0	0	0
4.30833	-230.66	1354.46	0.491395	0.909285	0	-0.356426	0	-3.8342	0	0	0	0	0.00031422	0	-0.000541218	0	0	0
4.31667	-231.381	1454.98	-14.8327	0.881309	0	-0.35553	0	-2.50802	0	0	0	0	0.000314235	0	-0.000541211	0	0	0
4.325	-201.05	1566.37	-18.5021	0.850171	0	-0.352522	0	-1.03949	0	0	0	0	0.000314251	0	-0.000541203	0	0	0
4.33333	-149.834	1654.68	-14.3608	0.818612	0	-0.349308	-0	0.217125	-0	0	0	0	0.000314268	0	-0.000541195	0	0	0
4.34167	-85.0043	1695.13	-11.4186	0.786748	0	-0.347621	-0	1.03536	-0	0	0	0	0.000314286	0	-0.000541186	0	0	0
4.35	-12.885	1684.29	-11.317	0.753527	0	-0.347066	-0	1.30327	-0	0	0	0	0.000314305	0	-0.000541177	0	0	0
4.35833	59.0554	1631.73	-8.69894	0.718659	0	-0.346341	-0	1.00527	-0	0	0	0	0.000314324	0	-0.000541167	0	0	0
4.36667	125.512	1544.43	-0.425737	0.682869	0	-0.345202	-0	0.23057	-0	0	0	0	0.000314345	0	-0.000541157	0	0	0
